<?xml version="1.0" encoding="UTF-8" standalone="no"?>
<svg
   version="1.1"
   width="595.27557pt"
   height="841.88977pt"
   id="svg2"
   viewBox="0 0 595.27557 841.88977"
   sodipodi:docname="arattai logo.cdr"
   xmlns:inkscape="http://www.inkscape.org/namespaces/inkscape"
   xmlns:sodipodi="http://sodipodi.sourceforge.net/DTD/sodipodi-0.dtd"
   xmlns="http://www.w3.org/2000/svg"
   xmlns:svg="http://www.w3.org/2000/svg">
  <defs
     id="defs2" />
  <sodipodi:namedview
     id="namedview2"
     pagecolor="#ffffff"
     bordercolor="#000000"
     borderopacity="0.25"
     inkscape:showpageshadow="2"
     inkscape:pageopacity="0.0"
     inkscape:pagecheckerboard="0"
     inkscape:deskcolor="#d1d1d1"
     inkscape:document-units="pt" />
  <path
     d="m 173.3397,182.0611 0.3821,-49.2095 161.5272,0.3872 -0.1222,227.7854 -1.7781,-1.0605 c -6.1835,-1.6421 -14.643,-6.3853 -20.8585,-9.0227 -6.9729,-2.9585 -13.6378,-6.1903 -20.5705,-9.4504 -8.2244,-3.8676 -44.4928,-2.0653 -56.5078,-2.0653 -38.9945,0 -80.3347,1.3246 -118.9919,-0.1018 l -0.009,-84.4741 c 16.6444,-0.6837 132.8578,0.9431 138.7527,-1.0332 12.2636,-4.1117 15.2215,-19.2702 4.798,-28.3502 -6.7332,-5.8651 -33.0313,-3.4444 -43.5498,-3.4444 H 124.412 c -49.6267,0 -40.6649,-6.542 -40.6649,97.998 0,24.7464 -2.179,52.2363 39.6646,52.1439 l 139.0002,-0.005 c 22.7577,-2e-4 18.9411,1.2895 36.9482,8.9187 8.9354,3.7857 24.1373,12.3202 34.0455,12.7811 14.4165,0.6704 25.1351,-7.4367 29.9279,-15.933 6.7207,-11.9137 4.5253,-28.0678 4.5253,-42.9057 v -185 c 0,-32.0094 -2.5807,-49.6148 -43.4469,-49.5927 l -137.9999,2e-4 c -39.0674,-0.005 -45.4247,12.2792 -45.4244,47.5923 3e-4,12.1346 -2.8165,34.2289 4.2945,42.1163 9.1945,10.198 25.8693,5.101 28.0576,-8.0747 z"
     style="fill:#293155;fill-rule:evenodd"
     id="path1" />
  <path
     d="m 440.3923,392.0196 c 2.0639,-7.7692 0.6865,-218.5333 0.6865,-245.9999 0,-12.3642 2.3528,-28.5752 -5.2571,-35.4127 -8.8858,-7.9838 -23.6503,-3.1753 -26.6321,7.1365 -2.2005,7.6108 -0.7909,218.9543 -0.7909,246.276 0,12.5728 -2.5109,28.4752 5.5593,35.4558 9.8286,8.5014 23.639,3.0671 26.4343,-7.4557 z"
     style="fill:#293155;fill-rule:evenodd"
     id="path2" />
</svg>
